<svg width="807" height="851" viewBox="0 0 807 851" fill="none" xmlns="http://www.w3.org/2000/svg">
<path d="M527.5 57.5C472.419 2.41865 441.566 -1.38732 430.758 4.40393C429.16 5.26002 428.291 6.94696 427.9 8.71696L420.527 42.115C420.182 43.6767 420.259 45.3022 420.751 46.824L511.5 327.5L634.399 592.625C635.118 594.176 636.264 595.49 637.703 596.414L787.068 692.303C792.215 695.607 799.089 692.924 800.637 687.006L804.361 672.767C805.34 669.024 803.805 665.108 800.696 662.804C715.262 599.462 703.031 402.103 707.836 306.596C707.939 304.547 708.748 302.669 710.121 301.143L721.591 288.399C724.216 285.482 724.549 281.028 722.554 277.649C587.244 48.4068 601.379 131.379 527.5 57.5Z" fill="url(#paint0_linear_46_13)"/>
<path d="M527.5 57.5C472.419 2.41865 441.566 -1.38732 430.758 4.40393C429.16 5.26002 428.291 6.94696 427.9 8.71696L420.527 42.115C420.182 43.6767 420.259 45.3022 420.751 46.824L511.5 327.5L634.399 592.625C635.118 594.176 636.264 595.49 637.703 596.414L787.068 692.303C792.215 695.607 799.089 692.924 800.637 687.006L804.361 672.767C805.34 669.024 803.805 665.108 800.696 662.804C715.262 599.462 703.031 402.103 707.836 306.596C707.939 304.547 708.748 302.669 710.121 301.143L721.591 288.399C724.216 285.482 724.549 281.028 722.554 277.649C587.244 48.4068 601.379 131.379 527.5 57.5Z" fill="url(#paint1_linear_46_13)"/>
<path d="M419.725 3.33595L7.2282 206.441C3.11337 208.467 1.18038 213.263 2.74044 217.577L50.2477 348.92C50.7419 350.286 50.8979 351.752 50.7025 353.192L26.6985 530.038C26.567 531.006 26.2788 531.947 25.8451 532.822L2.36671 580.222C0.907351 583.168 1.17075 586.676 3.05374 589.371L49.253 655.499C50.386 657.121 52.0218 658.324 53.9074 658.923L271.803 728.104C277.292 729.846 282.983 726.057 283.491 720.321L293.344 609.228C294.198 599.595 309.255 597.247 313.825 605.77C374.364 718.699 514.508 811.163 587.242 848.114C590.204 849.619 593.688 849.292 596.39 847.359L792.69 706.882C798.563 702.68 797.465 693.39 791.06 690.055C732.472 659.547 624.361 560.829 560.5 351C495.846 138.566 449.534 37.175 430.624 6.24913C428.345 2.52288 423.643 1.4066 419.725 3.33595Z" fill="url(#paint2_linear_46_13)"/>
<path d="M419.725 3.33595L7.2282 206.441C3.11337 208.467 1.18038 213.263 2.74044 217.577L50.2477 348.92C50.7419 350.286 50.8979 351.752 50.7025 353.192L26.6985 530.038C26.567 531.006 26.2788 531.947 25.8451 532.822L2.36671 580.222C0.907351 583.168 1.17075 586.676 3.05374 589.371L49.253 655.499C50.386 657.121 52.0218 658.324 53.9074 658.923L271.803 728.104C277.292 729.846 282.983 726.057 283.491 720.321L293.344 609.228C294.198 599.595 309.255 597.247 313.825 605.77C374.364 718.699 514.508 811.163 587.242 848.114C590.204 849.619 593.688 849.292 596.39 847.359L792.69 706.882C798.563 702.68 797.465 693.39 791.06 690.055C732.472 659.547 624.361 560.829 560.5 351C495.846 138.566 449.534 37.175 430.624 6.24913C428.345 2.52288 423.643 1.4066 419.725 3.33595Z" fill="url(#paint3_linear_46_13)"/>
<defs>
<linearGradient id="paint0_linear_46_13" x1="443.5" y1="2.5" x2="806" y2="699.5" gradientUnits="userSpaceOnUse">
<stop stop-color="#FE6332"/>
<stop offset="1" stop-color="#FFBBA5"/>
</linearGradient>
<linearGradient id="paint1_linear_46_13" x1="613" y1="2.41089" x2="828.5" y2="722" gradientUnits="userSpaceOnUse">
<stop stop-color="#F94D17"/>
<stop offset="1" stop-color="#FF8660"/>
</linearGradient>
<linearGradient id="paint2_linear_46_13" x1="403.25" y1="0" x2="403.25" y2="850.5" gradientUnits="userSpaceOnUse">
<stop stop-color="#E74512"/>
<stop offset="1" stop-color="#FF8660"/>
</linearGradient>
<linearGradient id="paint3_linear_46_13" x1="49.1004" y1="0.108802" x2="349.908" y2="989.877" gradientUnits="userSpaceOnUse">
<stop stop-color="#FE6332"/>
<stop offset="1" stop-color="#FFBBA5"/>
</linearGradient>
</defs>
</svg>
